<?xml version="1.0" encoding="utf-8"?>
<!-- Generator: Adobe Illustrator 29.7.1, SVG Export Plug-In . SVG Version: 9.03 Build 0)  -->
<svg version="1.0" id="Layer_1" xmlns="http://www.w3.org/2000/svg" xmlns:xlink="http://www.w3.org/1999/xlink" x="0px" y="0px"
	 viewBox="0 0 2291 1794" style="enable-background:new 0 0 2291 1794;" xml:space="preserve">
<style type="text/css">
	.st0{fill:#F2F2F2;}
	.st1{fill:none;stroke:#999999;stroke-width:6.124;stroke-miterlimit:10;stroke-dasharray:18.3738,18.3738;}
	.st2{fill:#4D4D4D;}
	.st3{fill:#F7AF31;}
	.st4{fill:#666666;}
	.st5{fill:#E09BB4;}
	.st6{fill:#999999;}
	.st7{fill:url(#SVGID_1_);}
	.st8{fill:#FFBBCF;}
	.st9{fill:#F4AEC5;}
	.st10{fill:#1A1A1A;}
	.st11{fill:#FFFFFF;}
	.st12{fill:none;stroke:#FFFFFF;stroke-width:3.5531;stroke-linecap:round;stroke-linejoin:round;stroke-miterlimit:10;}
	.st13{fill:#3A3286;}
	.st14{fill:#6B7277;}
	.st15{fill:none;stroke:#808080;stroke-width:18.9498;stroke-linecap:round;stroke-miterlimit:10;}
	.st16{fill:none;stroke:#808080;stroke-width:18.9498;stroke-miterlimit:10;}
	.st17{fill:url(#SVGID_00000054248484014827324100000005431676456278983342_);}
	.st18{fill:#E59C28;}
	.st19{fill:none;stroke:#333333;stroke-width:17.7654;stroke-miterlimit:10;}
	.st20{fill:none;stroke:#B3B3B3;stroke-width:15.0918;stroke-miterlimit:10;}
	.st21{fill:none;stroke:#333333;stroke-width:19.5062;stroke-linecap:round;stroke-linejoin:round;stroke-miterlimit:10;}
	.st22{fill:#F9C26B;}
	.st23{fill:#E6E6E6;}
	.st24{fill:#CCCCCC;}
	.st25{fill:none;stroke:#999999;stroke-width:2.3687;stroke-miterlimit:10;}
	.st26{fill:#B3B3B3;}
	.st27{fill:none;stroke:#4D4D4D;stroke-width:5.9218;stroke-miterlimit:10;}
	.st28{fill:none;stroke:#4D4D4D;stroke-width:5.728;stroke-miterlimit:10;}
	.st29{fill:none;stroke:#4D4D4D;stroke-width:4.6012;stroke-miterlimit:10;}
	.st30{fill:none;stroke:#F7AF31;stroke-width:7.1062;stroke-miterlimit:10;}
	.st31{fill:none;stroke:#999999;stroke-width:6.124;stroke-miterlimit:10;stroke-dasharray:18.3719;}
	.st32{fill:none;stroke:#999999;stroke-width:11.8436;stroke-miterlimit:10;}
	.st33{fill:none;stroke:#999999;stroke-width:5.8479;stroke-miterlimit:10;stroke-dasharray:17.5436;}
	.st34{fill:none;stroke:#FFFFFF;stroke-width:3.3929;stroke-linecap:round;stroke-linejoin:round;stroke-miterlimit:10;}
	.st35{fill:url(#SVGID_00000172420129842780648750000011149353848802290309_);}
	.st36{fill:url(#SVGID_00000080172876322175237650000003479537090966383752_);}
	.st37{fill:#EDA024;}
	.st38{fill:none;stroke:#999999;stroke-width:11.3096;stroke-miterlimit:10;}
	.st39{fill:none;stroke:#F7AF31;stroke-width:6.7858;stroke-miterlimit:10;}
	.st40{fill:none;stroke:#999999;stroke-width:5.6088;stroke-miterlimit:10;stroke-dasharray:16.8263;}
	.st41{fill:url(#SVGID_00000109019020085299036620000015610367604687406219_);}
	.st42{fill:none;stroke:#999999;stroke-width:5.3462;stroke-miterlimit:10;stroke-dasharray:16.0385;}
	.st43{fill:#FCD9A7;}
	.st44{fill:#E29C2B;}
	.st45{fill:none;stroke:#999999;stroke-width:5.4315;stroke-miterlimit:10;stroke-dasharray:16.2946;}
	.st46{fill:none;stroke:#999999;stroke-width:10.5044;stroke-miterlimit:10;}
	.st47{fill:#E6E6E6;stroke:#999999;stroke-width:6.3027;stroke-miterlimit:10;}
	.st48{fill:url(#SVGID_00000031183118860909098940000011092192746175936701_);}
	.st49{opacity:0.19;fill:#F9C26B;}
	.st50{fill:none;stroke:#333333;stroke-width:18.726;stroke-linecap:round;stroke-linejoin:round;stroke-miterlimit:10;}
	.st51{fill:#FCC163;}
	.st52{fill:#808080;}
	.st53{fill:none;stroke:#999999;stroke-width:5.5967;stroke-miterlimit:10;stroke-dasharray:16.7918,16.7918;}
	.st54{fill:none;stroke:#F7AF31;stroke-width:6;stroke-miterlimit:10;}
	.st55{fill:#FFFFFF;stroke:#808080;stroke-width:10;stroke-miterlimit:10;}
	.st56{fill:#FFFFFF;stroke:#808080;stroke-miterlimit:10;}
	.st57{fill:#333333;}
	.st58{fill:none;stroke:#1A1A1A;stroke-width:2;stroke-miterlimit:10;}
	.st59{fill:none;stroke:#FFFFFF;stroke-width:3;stroke-linecap:round;stroke-linejoin:round;stroke-miterlimit:10;}
	.st60{fill:url(#SVGID_00000103257611734999518750000007286725168385033375_);}
	.st61{fill:url(#SVGID_00000051362305965445977100000012547000379782067624_);}
	.st62{fill:none;stroke:#999999;stroke-width:5.1707;stroke-miterlimit:10;stroke-dasharray:15.5121;}
	.st63{fill:none;stroke:#999999;stroke-width:10;stroke-miterlimit:10;}
</style>
<g>
	<path class="st0" d="M413.27,266.95C285.35,384.92,236,623.64,195.8,770.2c-8.81,32.13-17.06,65.9-9.84,98.43
		c11.21,50.45,55.85,84.97,90,123.76c74.52,84.62,104.19,206.65,76.84,316.04c-17.48,69.93-56.82,139.84-39.09,209.7
		c13.8,54.37,61.52,95.72,114.8,113.25c53.28,17.53,111.36,14.2,166.35,3.17c103.72-20.79,201.91-68.63,282.19-137.51
		c87.94-75.45,172.7-182.95,288.3-175c115.99,7.98,185.19,126.78,260.35,215.49c81.25,95.89,196.9,170.07,322.56,172.35
		s255.89-83.2,277.6-206.99c14.61-83.24-18.55-171.68,7.54-252.07c30.71-94.65,136.25-154.11,154.8-251.87
		c16.72-88.1-43.9-176.92-28.58-265.27c9.58-55.26,47.27-100.81,71.68-151.3c24.42-50.49,32.2-118.96-9.77-156.17
		c-57.2-50.71-147.39-1.46-222.68-14.66c-97.1-17.03-140.81-127.24-202.13-204.43c-65.27-82.16-174.2-135.78-276.44-112.18
		c-74.62,17.22-138.22,72.28-214.47,79.43c-68.05,6.38-133.37-26.59-201.31-34.06c-109.07-11.99-214.14,41.95-323.27,53.44
		c-73.48,7.73-148.02-3.93-221.45,4.32C501.71,204.59,453.59,229.77,413.27,266.95z"/>
	<path class="st53" d="M384.27,266.95C256.35,384.92,207,623.64,166.8,770.2c-8.81,32.13-17.06,65.9-9.84,98.43
		c11.21,50.45,55.85,84.97,90,123.76c74.52,84.62,104.19,206.65,76.84,316.04c-17.48,69.93-56.82,139.84-39.09,209.7
		c13.8,54.37,61.52,95.72,114.8,113.25c53.28,17.53,111.36,14.2,166.35,3.17c103.72-20.79,201.91-68.63,282.19-137.51
		c87.94-75.45,172.7-182.95,288.3-175c115.99,7.98,185.19,126.78,260.35,215.49c81.25,95.89,196.9,170.07,322.56,172.35
		s255.89-83.2,277.6-206.99c14.61-83.24-18.55-171.68,7.54-252.07c30.71-94.65,136.25-154.11,154.8-251.87
		c16.72-88.1-43.9-176.92-28.58-265.27c9.58-55.26,47.27-100.81,71.68-151.3c24.42-50.49,32.2-118.96-9.77-156.17
		c-57.2-50.71-147.39-1.46-222.68-14.66c-97.1-17.03-140.81-127.24-202.13-204.43c-65.27-82.16-174.2-135.78-276.44-112.18
		c-74.62,17.22-138.22,72.28-214.47,79.43c-68.05,6.38-133.37-26.59-201.31-34.06c-109.07-11.99-214.14,41.95-323.27,53.44
		c-73.48,7.73-148.02-3.93-221.45,4.32C472.71,204.59,424.59,229.77,384.27,266.95z"/>
	<g>
		<g>
			<path class="st54" d="M1712.47,1168.56c0,0,105-328,144,120"/>
			<path class="st54" d="M2082.47,1228.06c0,0-159.7-306.51-197,38.51"/>
			<path class="st54" d="M1926.47,938.56c0,0-77,98-51,274"/>
			<g>
				<path class="st3" d="M1930.65,960.91c5.73-13.16,25.44-17.27,44.03-9.17c0.82,0.36,1.62,0.74,2.42,1.13
					c6.43-8.68,10.5-18.94,15.03-29.36c5.31-12.21,10.29-24.06,12.17-36.46c-0.41-0.17-0.82-0.33-1.23-0.51
					c-18.59-8.09-29.01-25.32-23.28-38.48c3.77-8.66,13.59-13.4,25.17-13.32c-3.59-32.38-12.93-55.96-12.93-55.96
					s-57.54,22.47-92.43,71.13c13.74,8.95,20.66,23.18,15.76,34.43c-5.09,11.68-21.19,16.22-37.75,11.44
					c-16.94,62.02,8.5,126.25,8.5,126.25s26.12-10.2,53.84-31.74C1930.64,981.58,1926.6,970.23,1930.65,960.91z"/>
				<path class="st11" d="M1980.18,914.31c-1.83,4.2-8.12,5.51-14.05,2.93c-5.93-2.58-9.26-8.08-7.43-12.28
					c1.83-4.2,8.12-5.51,14.05-2.93S1982,910.11,1980.18,914.31z"/>
				<path class="st11" d="M1944.77,842.72c-1.55,3.55-6.87,4.66-11.89,2.48c-5.02-2.18-7.83-6.84-6.29-10.39
					c1.55-3.55,6.87-4.66,11.89-2.48C1943.51,834.52,1946.32,839.17,1944.77,842.72z"/>
				<path class="st11" d="M1992.09,778.63c-7.69,20.77-15.92,41.3-24.34,61.74c-4.16,10.25-8.52,20.41-12.78,30.61l-13.09,30.47
					l-13.38,30.34c-4.57,10.07-9.03,20.18-13.7,30.21c-9.23,20.1-18.65,40.11-28.62,59.88c7.68-20.77,15.91-41.3,24.33-61.75
					c4.16-10.25,8.52-20.4,12.78-30.61l13.09-30.47l13.39-30.34c4.56-10.07,9.03-20.18,13.7-30.21
					C1972.7,818.42,1982.12,798.41,1992.09,778.63z"/>
			</g>
			<g>
				<path class="st3" d="M1650.07,1335.03c8.75-18.35,30.72-26.13,49.07-17.37c0.81,0.39,1.6,0.81,2.37,1.25
					c8.62-12.41,15.01-26.67,21.94-41.19c8.12-17.02,15.8-33.52,20.28-50.41c-0.41-0.18-0.82-0.35-1.22-0.55
					c-18.35-8.75-26.13-30.72-17.37-49.07c5.76-12.07,17.24-19.57,29.64-20.79c2.55-43.12-2.81-73.75-2.81-73.75
					s-66.2,36.8-113.27,106.21c12.97,10.46,17.59,28.79,10.1,44.49c-7.77,16.29-25.95,24.23-42.77,19.7
					c-30.46,85.33-15.85,168.76-15.85,168.76s30.05-16.71,64.06-48.84C1645.97,1362.82,1643.87,1348.03,1650.07,1335.03z"/>
				<path class="st11" d="M1752.06,1082.94c-12.81,28.59-25.94,57.02-39.18,85.4c-6.59,14.2-13.3,28.35-19.95,42.53l-20.13,42.44
					l-20.31,42.35l-10.23,21.14l-5.12,10.57l-5.15,10.55c-13.72,28.15-27.56,56.24-41.72,84.18c12.8-28.59,25.93-57.02,39.17-85.4
					l4.96-10.64l5-10.63l10-21.25l20.14-42.44l20.31-42.35c6.83-14.09,13.6-28.21,20.5-42.27
					C1724.06,1138.98,1737.9,1110.88,1752.06,1082.94z"/>
				
					<ellipse transform="matrix(0.9427 -0.3338 0.3338 0.9427 -323.5075 640.3679)" class="st11" cx="1701.84" cy="1261.65" rx="11.74" ry="11.74"/>
				<path class="st11" d="M1688.6,1174.52c-2.36,4.95-8.29,7.05-13.25,4.69c-4.95-2.36-7.05-8.29-4.69-13.25
					c2.36-4.95,8.29-7.05,13.25-4.69C1688.87,1163.64,1690.97,1169.57,1688.6,1174.52z"/>
			</g>
			<g>
				<path class="st3" d="M2074.08,1199.4c10.51,17.4,33.14,22.99,50.54,12.48c0.77-0.47,1.51-0.96,2.23-1.47
					c9.79,11.51,17.55,25.07,25.87,38.85c9.75,16.14,19.01,31.81,25.12,48.18c-0.39,0.22-0.78,0.43-1.16,0.66
					c-17.4,10.51-22.99,33.14-12.48,50.54c6.91,11.45,19.07,17.78,31.54,17.78c6.76,42.66,4.43,73.67,4.43,73.67
					s-69.49-30.14-123.13-94.6c11.89-11.68,14.68-30.38,5.69-45.26c-9.33-15.45-28.2-21.57-44.5-15.41
					c-38.67-81.93-32.32-166.4-32.32-166.4s31.54,13.68,68.53,42.32C2067.28,1172.14,2066.64,1187.08,2074.08,1199.4z"/>
				<path class="st11" d="M2200.29,1440.28c-15.55-27.19-31.4-54.2-47.36-81.14c-7.95-13.49-16.01-26.91-24.02-40.36l-24.2-40.26
					l-24.36-40.16l-12.25-20.04l-6.13-10.02l-6.16-10c-16.41-26.67-32.94-53.27-49.77-79.69c15.54,27.19,31.4,54.2,47.36,81.15
					l5.98,10.11l6.01,10.09l12.03,20.17l24.2,40.26l24.37,40.16c8.18,13.35,16.3,26.74,24.54,40.05
					C2166.94,1387.26,2183.46,1413.86,2200.29,1440.28z"/>
				<path class="st11" d="M2142.85,1261.28c-3.35-5.55-10.57-7.33-16.12-3.98c-5.55,3.35-7.33,10.57-3.98,16.12
					c3.35,5.55,10.57,7.33,16.12,3.98C2144.42,1274.05,2146.2,1266.83,2142.85,1261.28z"/>
				<path class="st11" d="M2128.17,1355.36c-2.84-4.7-8.94-6.21-13.64-3.37c-4.7,2.84-6.21,8.94-3.37,13.64
					c2.84,4.7,8.94,6.21,13.64,3.37C2129.5,1366.16,2131,1360.06,2128.17,1355.36z"/>
			</g>
		</g>
		<path class="st24" d="M1913.03,1407.27h-71.27c-7.26,0-13.45-6.93-14.64-16.38l-24.51-194.83c-1.5-11.93,5.47-22.79,14.64-22.79
			h120.3c9.17,0,16.14,10.86,14.64,22.79l-24.51,194.83C1926.48,1400.34,1920.29,1407.27,1913.03,1407.27z"/>
	</g>
	<line class="st55" x1="1114.5" y1="1234.5" x2="884.5" y2="1338.5"/>
	<line class="st55" x1="1115.5" y1="1234.5" x2="1345.5" y2="1338.5"/>
	<line class="st55" x1="1114.5" y1="213.5" x2="1114.5" y2="1234.5"/>
	<g>
		<line class="st11" x1="1114.5" y1="213.5" x2="773.5" y2="367.5"/>
		<path class="st52" d="M1114.56,213.64c-13.98,6.92-28.09,13.56-42.21,20.17c-14.14,6.57-28.31,13.07-42.59,19.33l-21.48,9.25
			c-7.17,3.07-14.33,6.14-21.46,9.31c-14.24,6.34-28.38,12.9-42.49,19.56c-14.09,6.68-28.21,13.29-42.38,19.79
			c-14.17,6.51-28.32,13.04-42.55,19.42c-28.48,12.7-57.04,25.21-85.85,37.18l-0.12-0.27c28.03-13.7,56.3-26.85,84.65-39.82
			c14.19-6.45,28.45-12.76,42.7-19.08c14.24-6.34,28.54-12.56,42.87-18.71c14.31-6.18,28.59-12.45,42.76-18.94
			c7.08-3.25,14.13-6.59,21.17-9.94l21.14-10c14.14-6.58,28.38-12.91,42.66-19.17c14.3-6.22,28.61-12.42,43.04-18.33L1114.56,213.64
			z"/>
	</g>
	<g>
		<line class="st11" x1="1455.5" y1="367.5" x2="1114.5" y2="213.5"/>
		<path class="st52" d="M1455.44,367.64c-14.44-5.91-28.75-12.1-43.04-18.33c-14.28-6.27-28.52-12.6-42.66-19.17l-21.14-10
			c-7.04-3.35-14.09-6.69-21.17-9.94c-14.17-6.5-28.45-12.76-42.76-18.94c-14.33-6.15-28.62-12.38-42.87-18.71
			c-14.25-6.32-28.51-12.62-42.7-19.08c-28.35-12.97-56.63-26.12-84.65-39.82l0.12-0.27c28.81,11.97,57.37,24.48,85.85,37.18
			c14.23,6.38,28.38,12.91,42.55,19.42c14.17,6.5,28.29,13.11,42.38,19.79c14.1,6.65,28.24,13.22,42.49,19.56
			c7.12,3.16,14.29,6.24,21.46,9.31l21.48,9.25c14.28,6.26,28.45,12.76,42.59,19.33c14.12,6.61,28.23,13.25,42.21,20.17
			L1455.44,367.64z"/>
	</g>
	<g>
		<rect x="774" y="367" class="st56" width="682" height="733"/>
		<polygon class="st10" points="819.8,495.2 847.21,454.47 848.25,452.91 849.86,453.81 900.58,482.32 898.77,482.67 937.23,436.05 
			937.73,435.45 938.36,435.88 966.17,455.16 965.51,455.24 999.89,417.58 966.26,455.92 965.98,456.24 965.6,456 937.42,437.27 
			938.54,437.11 901.01,484.48 900.27,485.41 899.2,484.84 847.92,457.34 850.57,456.69 823.98,497.95 		"/>
		<polygon class="st10" points="830.11,559.86 857.81,514.11 859.01,512.13 860.4,513.96 890.68,553.78 888.8,553.83 925.53,502.26 
			926.12,501.43 926.64,502.29 942.51,528.5 941.82,528.46 973.85,487.17 942.49,528.97 942.12,529.45 941.8,528.94 925.51,502.99 
			926.62,503.02 890.71,555.17 889.82,556.47 888.83,555.21 857.91,515.88 860.51,515.72 833.55,561.9 		"/>
		<g>
			<path class="st10" d="M1198.5,624.5l134-1.06l1.06-0.01l0,1.07c-0.02,7.07-0.55,14.14-1.59,21.14c-1.08,7-2.78,13.89-4.93,20.64
				c-2.13,6.76-4.91,13.3-8.12,19.61c-3.22,6.31-6.88,12.41-11.08,18.12c-16.56,23.05-40.57,40.69-67.61,49.55
				c-6.76,2.19-13.68,3.91-20.7,5.04c-7.03,1.08-14.13,1.64-21.24,1.69c-7.11-0.04-14.22-0.62-21.25-1.7
				c-7.03-1.1-13.95-2.86-20.71-5.05c-27.04-8.89-51.15-26.48-67.85-49.56c-4.22-5.74-7.92-11.85-11.13-18.2
				c-3.2-6.35-6.03-12.91-8.16-19.71c-2.16-6.78-3.84-13.72-4.96-20.75c-1.05-7.04-1.56-14.15-1.58-21.27
				c0.05-7.12,0.68-14.22,1.8-21.25c1.11-7.03,2.93-13.93,5.14-20.69c0.6-1.67,1.11-3.38,1.78-5.03l1.98-4.95
				c1.46-3.24,2.89-6.5,4.58-9.63c3.31-6.29,7-12.39,11.28-18.07c4.24-5.7,8.9-11.09,13.93-16.1c5.05-5,10.51-9.57,16.27-13.72
				c1.46-1.01,2.87-2.09,4.38-3.03l4.49-2.86c3.08-1.77,6.14-3.57,9.33-5.12c6.35-3.16,12.9-5.95,19.68-8.05
				c27.03-8.73,56.78-8.33,83.59,0.69l1.01,0.34l-0.34,1c-7.04,21.04-14.27,42.06-21.44,63.19L1198.5,624.5z M1198.5,624.5
				l20.43-63.53c6.84-21.27,13.62-42.67,20.59-64.04l0.68,1.34c-26.47-8.64-55.66-8.72-82.02,0.06c-6.61,2.11-12.99,4.9-19.17,8.05
				c-3.11,1.54-6.08,3.33-9.07,5.09l-4.36,2.83c-1.46,0.93-2.83,2-4.25,3c-5.57,4.12-10.9,8.57-15.81,13.47
				c-4.89,4.91-9.42,10.17-13.53,15.74c-4.15,5.55-7.73,11.51-10.93,17.64c-1.64,3.05-3.02,6.23-4.43,9.39l-1.91,4.83
				c-0.64,1.61-1.14,3.27-1.71,4.9c-2.14,6.58-3.88,13.3-4.94,20.14c-1.06,6.84-1.66,13.74-1.69,20.66
				c0.04,6.92,0.56,13.83,1.6,20.67c1.11,6.83,2.76,13.56,4.88,20.14c2.09,6.59,4.86,12.96,7.99,19.11c1.53,3.1,3.31,6.07,5.06,9.05
				l2.81,4.36c0.94,1.45,2,2.82,2.98,4.24c16.14,22.47,39.52,39.64,65.79,48.37c6.57,2.15,13.29,3.89,20.13,4.97
				c6.83,1.07,13.74,1.66,20.67,1.72c6.92-0.03,13.84-0.55,20.69-1.58c6.84-1.08,13.58-2.74,20.17-4.85
				c6.61-2.09,12.99-4.84,19.16-7.97c6.17-3.15,12.12-6.75,17.71-10.84c5.61-4.07,10.92-8.55,15.88-13.41
				c4.91-4.9,9.45-10.17,13.59-15.74c4.17-5.55,7.8-11.5,11.02-17.65c3.2-6.16,6-12.55,8.15-19.16c2.17-6.6,3.91-13.35,5.03-20.22
				c1.09-6.87,1.67-13.82,1.76-20.78l1.06,1.06c-22.48-0.09-44.92-0.35-67.27-0.54L1198.5,624.5z"/>
		</g>
		<g>
			<path class="st10" d="M1273.5,505.5l-13.17,42.72l-6.57,20.99l-6.64,20.83l-1.64-2.25l22-0.42l22-0.33l22-0.27l22-0.19
				l-1.85,1.46c0.47-2.06,0.75-4.41,0.94-6.65c0.19-2.27,0.24-4.56,0.19-6.84c-0.12-4.57-0.7-9.13-1.76-13.58
				c-2.11-8.9-6.11-17.37-11.76-24.65c-2.8-3.65-5.98-7.04-9.43-10.12c-3.48-3.06-7.18-5.89-11.1-8.41
				C1290.87,512.7,1282.3,508.77,1273.5,505.5z M1273.5,505.5c9.04,2.59,17.82,6.19,26.04,10.92c8.22,4.7,15.74,10.79,21.85,18.19
				c6.06,7.42,10.59,16.18,12.96,25.53c1.2,4.67,1.89,9.47,2.09,14.29c0.1,2.41,0.08,4.83-0.08,7.24c-0.16,2.44-0.43,4.77-0.99,7.3
				l-0.32,1.44l-1.53,0.02l-22,0.31l-22,0.23l-22,0.17l-22,0.08l-2.43,0.01l0.79-2.26l7.36-21.17l7.43-21.01L1273.5,505.5z"/>
		</g>
		<path class="st10" d="M883.5,831.5c0.29,14.42,0.47,28.83,0.66,43.25c0.2,14.42,0.4,28.83,0.49,43.25l0.35,43.25l0.18,21.62
			l0.1,21.62l-1.77-1.77l90.5-0.22l45.25,0.05l45.25,0.13c30.17,0.07,60.33,0.4,90.5,0.63l22.62,0.19l22.62,0.3
			c15.08,0.2,30.17,0.39,45.25,0.69c-15.08,0.3-30.17,0.49-45.25,0.69l-22.62,0.3l-22.62,0.19c-30.17,0.23-60.33,0.56-90.5,0.63
			l-45.25,0.13l-45.25,0.05l-90.5-0.22l-1.78,0l0.01-1.77l0.1-21.62l0.18-21.62l0.35-43.25c0.09-14.42,0.29-28.83,0.49-43.25
			C883.03,860.33,883.21,845.92,883.5,831.5z"/>
		<polygon class="st57" points="883.6,830 895,830 889.3,820.13 883.6,810.25 877.9,820.13 872.2,830 		"/>
		<polygon class="st57" points="1245,1004.3 1245,1015.7 1254.87,1010 1264.75,1004.3 1254.87,998.6 1245,992.9 		"/>
		<polyline class="st58" points="1290.5,547.5 1332.5,463.5 1409.5,463.5 		"/>
		<polyline class="st58" points="1214.5,706.5 1174.5,803.5 999.5,803.5 		"/>
		<rect x="924" y="912" class="st57" width="20" height="92"/>
		<rect x="959" y="895" class="st57" width="21" height="109"/>
		<rect x="1033" y="863" class="st57" width="19" height="141"/>
		<rect x="1069" y="853" class="st57" width="23" height="151"/>
		<rect x="1154" y="840" class="st57" width="26" height="164"/>
		<polygon class="st10" points="893.59,955.94 999.08,884.66 999.62,884.3 1000.24,884.4 1107.13,901.14 1106.66,901.2 1223,853 
			1107.34,902.8 1107.12,902.9 1106.87,902.86 999.76,887.6 1000.92,887.34 896.41,960.06 		"/>
		<rect x="999.5" y="782.5" class="st57" width="107" height="14"/>
		<rect x="1350" y="438" class="st57" width="61" height="14"/>
	</g>
	<path class="st9" d="M761.48,686.15c3.89-8.08,9.59-15.12,15.23-22.08c13.4-16.51,26.79-33.03,40.19-49.54
		c6.08-7.5,12.16-15,18.25-22.49c0.95-1.18,2.09-2.46,3.89-1.88c1.28,0.41,2.17,1.62,2.32,2.96c1.45,12.83-12.17,20.62-17.03,31.99
		c7.97-1.69,15.95-3.37,23.92-5.06c3.4-0.72,7.08-1.41,10.22,0.09c3.13,1.49,4.86,6.18,2.29,8.52c-9.2,0.42-18.33,2.49-26.81,6.08
		c5.48-1.61,21,0.25,29.31,5.89c3.51,2.38,1.2,7.86-2.95,7c-8.27-1.7-19.51-4.2-22.59-5.53c3.71,1.21,7.71,2.62,9.22,6.64
		c0.8,2.15,0.09,4.68-1.9,5.82c-2.63,1.51-5.54-0.32-7.99-1.85c-6.56-4.08-14.17-6.47-21.89-6.87c-1.89-0.1-3.85-0.06-5.58,0.71
		c-4.29,1.92-5.46,7.36-6.07,12.03c-0.31,2.33-0.54,4.95,0.92,6.79c1.08,1.36,2.84,5.96,4.54,6.35c5.19,1.18,10.69-1.04,15.77-2.62
		c2.82-0.88,5.56-2.18,8.51-2.44c3.34-0.29,7.2-1.38,7.89,2.84c0.38,2.32-0.9,5.49-2.73,6.97c-8.99,7.3-21.29,13.07-30.91,16.99
		c-10.75,4.39-17.14,7.68-27,13.82c-3.77,2.35-4.24,1.53-10.8,3.66c-6.5,2.11-13.62-1.44-15.46-8.02
		c-2.15-7.7,2.63-16.69,10.23-19.18"/>
	<g>
		<path class="st10" d="M574.8,1394.87l-2.96,17.18c-1.22,7.1,3.08,13.99,9.99,16.02l120.5,35.24c4.25,1.24,8.84-0.42,11.26-4.13
			c6.99-10.7,11.53-34.8-56.4-62.31L574.8,1394.87z"/>
		<path class="st11" d="M715.36,1456.3c-0.6,1.42-1.31,2.71-2.05,3.84c-2.42,3.71-7.01,5.37-11.26,4.13l-120.5-35.24
			c-6.92-2.02-11.22-8.91-9.99-16.02l0.16-0.91L715.36,1456.3z"/>
		<path class="st59" d="M668.38,1399.13c0,0,3.72,11.43-24.29,17.45"/>
		<path class="st59" d="M684.12,1409.2c0,0,3.72,11.43-24.29,17.45"/>
	</g>
	<linearGradient id="SVGID_1_" gradientUnits="userSpaceOnUse" x1="521.578" y1="267.1485" x2="521.578" y2="743.6363">
		<stop  offset="0.371" style="stop-color:#E094AE"/>
		<stop  offset="0.3771" style="stop-color:#E196B0"/>
		<stop  offset="0.4476" style="stop-color:#EFA7BE"/>
		<stop  offset="0.5351" style="stop-color:#F8B2C8"/>
		<stop  offset="0.6582" style="stop-color:#FEB9CD"/>
		<stop  offset="1" style="stop-color:#FFBBCF"/>
	</linearGradient>
	<path class="st7" d="M573.07,513.36l45.6,2.2c0,0-27.51-17.83-63.16-27.11c-2.95-0.77-5.21-3.16-5.78-6.16
		c-2.44-12.79-1.8-25.97,1.86-38.46l6.42-21.9l-67.34-3.26l3.06,32.97c0.59,6.38,0.26,12.81-0.98,19.1l-0.4,2
		c-1.4,7.06-6.86,12.63-13.9,14.1c-31.77,6.62-52.51,19.39-52.51,19.39l36.73,1.78l-33.46,42.38l-4.72,97.63l49,36.41l77.07,3.73
		c0,0,70.28-9.37,55.97-98.52C600.7,553.33,587.12,529.21,573.07,513.36z"/>
	<path class="st9" d="M635.15,717.55l141.38-38.25l6.22,26.71l-130.94,68.86c0,0-47.8,12.49-44.35-23.22
		C609.08,734.89,620.2,721.77,635.15,717.55z"/>
	<path class="st4" d="M571.95,1386.67l1.1-181.38c0-0.62-0.04-1.24-0.14-1.86c-1.36-8.74-3.01-17.24-3.73-26.11
		c-2.96-36.43-11.96-56.15,28.06-65.95c53.36-13.06,53.37,33.94,53.37,33.94l1.49,240.74c0.04,6.33-5.05,11.5-11.38,11.57
		l-57.14,0.61C577.15,1398.31,571.91,1393.1,571.95,1386.67z"/>
	<path class="st4" d="M419.46,1137.86l-27.43-254.5c0,0-9.15-73.27,80.99-53.98c0,0,32.45,1.93,36.25,38.56
		c3.8,36.63-13.94,269.92-13.94,269.92S452.85,1184.13,419.46,1137.86z"/>
	<path class="st4" d="M570.58,1140.98l-68.01-249.21c0,0-21.03-72.79,75.69-62.22c0,0,34.03-1.23,43.74,35.24
		c9.71,36.47,27.97,272.83,27.97,272.83S612.56,1184.25,570.58,1140.98z"/>
	<path class="st4" d="M404.3,1392.05l9.97-185.64c0.03-0.5,0.02-1.01-0.02-1.51c-0.66-8.87,0.69-17.49,1.34-26.45
		c3.01-41.51-9.38-56.86,30.46-62.96c53.11-8.13,50.21,38.56,50.21,38.56l-13.47,239.17c-0.36,6.44-5.68,11.49-12.13,11.51
		l-54.15,0.17C409.51,1404.92,403.93,1399.04,404.3,1392.05z"/>
	<path class="st3" d="M472.24,483.12l33.66,22.38l13.39,35.09l11.2-32.86c0,0,23.34-16.48,26.91-21.92l36.85,16.02l29.96,12.98
		c18.86,12.62,26.76,34.45,30.04,57.88l25.11,131.03l-68.96,53.03l-13.24-114.45l24.09,201.47l-235.46,24.15L457,625.06l-64.63-7.98
		l16.37-103.03L472.24,483.12z"/>
	<path class="st9" d="M401.46,765.22l178.35,81.59l14.74-32.15L430.29,709.92c0,0-47.8-20.76-51.22,16.04
		C377.46,743.22,386.57,758.41,401.46,765.22z"/>
	
		<ellipse transform="matrix(0.0483 -0.9988 0.9988 0.0483 141.9439 865.0739)" class="st9" cx="524.93" cy="358.05" rx="90.65" ry="72.26"/>
	<path class="st10" d="M411.35,1404.72c0,0-17.65,79.14,32,96c53,18,33-96,33-96H411.35z"/>
	<path class="st59" d="M429.35,1435.72c0,0,15,13,32,0"/>
	<path class="st59" d="M431.35,1453.72c0,0,15,13,32,0"/>
	<path class="st3" d="M371.83,737.62l20.91-198.95c0,0,7.48-43.89,59.09-27.12c0,0,27.49,17.97,19.05,42.57
		c-8.44,24.6-13.72,170.61-13.72,170.61l-73.27,22.79C377.48,749.5,371.13,744.29,371.83,737.62z"/>
	<path class="st10" d="M468.21,356.07c-1.47-4.38-3.08-8.92-2.48-13.5c0.61-4.58,4.25-9.14,8.86-9.01c3.68,0.1,6.62,2.96,9.07,5.7
		c6.36,7.09,12.2,14.64,17.47,22.58c-5.42-22.72,3.74-48.24,22.37-62.33c-6.59,12.64-8.05,27.87-3.99,41.53
		c6.42,0.72,12.39-3.67,16.29-8.82c3.91-5.15,6.49-11.22,10.58-16.23c10.14-12.42,32.07-14.91,41.72-2.11
		c-1.7-20.93-11.74-41.72-29.12-53.49c-17.38-11.78-42.28-12.86-58.99-0.15c9.05-8.43,21.18-13.47,33.54-13.96
		c-18.14-4.3-38.06-0.49-53.33,10.21c-15.27,10.7-25.65,28.12-27.8,46.64c-6.24-10.13-7.07-23.4-2.13-34.22
		c-12.58,19.27-18.48,42.33-19.85,65.3c-1.01,17.01,0.53,34.74,8.73,49.69c4.73,8.63,11.47,15.95,18.14,23.19
		c7.96,8.63,15.84,19.12,25.05,26.06C487.89,414.52,476.58,373.19,468.21,356.07z"/>
	<path class="st11" d="M589.78,647.09l-27.84,0.02c-4.32,0-7.83-3.5-7.83-7.82l-0.03-40.84c0-4.32,3.5-7.83,7.82-7.83l27.84-0.02
		c4.32,0,7.83,3.5,7.83,7.82l0.03,40.84C597.6,643.58,594.1,647.09,589.78,647.09z"/>
	
		<rect x="570.53" y="581.64" transform="matrix(0.9482 -0.3177 0.3177 0.9482 -158.3658 213.2234)" class="st13" width="8" height="21"/>
	<path class="st14" d="M584.05,614.26c1.49,4.45-0.91,9.27-5.36,10.76c-4.45,1.49-9.27-0.91-10.76-5.36
		c-1.49-4.45,0.91-9.27,5.36-10.76C577.74,607.41,582.56,609.81,584.05,614.26z"/>
	<path class="st14" d="M589.05,647.5l-27,0.02l-0.01-11.35c0-5.37,4.34-9.72,9.71-9.72l7.56-0.01c5.37,0,9.72,4.34,9.72,9.71
		L589.05,647.5z"/>
	<path class="st9" d="M586.4,851.73c13.61,6.68,30.75,2.53,44.14,9.64c5.43,2.88,9.81,7.42,15.14,10.48
		c3.24,1.86,7.16,3.06,10.82,2.88c3.2-0.16,4.56-4.19,2.18-6.33c-8.13-7.33-16.85-14.02-26.04-19.97c11,3.25,22,6.49,33,9.74
		c4.02,1.19,8.86,2.05,12.88,1.35c3.75-0.65,4.32-5.78,0.78-7.18l-41.48-16.39c15.43,0.21,30.87,0.42,46.3,0.64
		c2.38,0.03,4.9,0.03,6.86-1.41c1.11-0.81,1.85-2.09,1.83-3.46c-0.03-1.89-1.24-3.14-2.7-3.41c-35.78-6.59-36.18,0.11-51.74-8.2
		c8.51-1.2,17.01-3.39,25.52-4.59c8.38-1.18,17.44-2.12,24.2-6.52c2.49-1.62,1.73-5.45-1.2-5.93c-18.05-3.01-36.56,2.65-54.16,4.4
		c-1.38,0.14-2.82-0.13-3.32-1.42c-0.52-1.33,0.36-2.12,1.17-2.79l12.44-10.34c0.82-0.68,1.54-1.48,2.03-2.42
		c2.29-4.43-2-7.07-5.44-6.58c-2.55,0.36-4.74,1.92-6.91,3.31c-17.61,11.28-39.41,14.24-56.87,25.91
		C558.79,824.52,571.45,844.4,586.4,851.73z"/>
	<g>
		<path class="st3" d="M217.9,276.96c62.41,0,113,36.53,113,81.59c0,17.91-8,34.47-21.55,47.93l14.02,44.13l-41.65-24.72
			c-18.16,8.99-40.14,14.25-63.82,14.25c-62.41,0-113-36.53-113-81.59S155.49,276.96,217.9,276.96z"/>
		<circle class="st11" cx="270.97" cy="354.95" r="15.88"/>
		<circle class="st11" cx="216.09" cy="354.95" r="15.88"/>
		<circle class="st11" cx="157.61" cy="354.95" r="15.89"/>
	</g>
	<g>
		<path class="st10" d="M1614.68,1431.24l2.96,17.18c1.22,7.1-3.08,13.99-9.99,16.02l-120.5,35.24c-4.25,1.24-8.84-0.42-11.26-4.13
			c-6.99-10.7-11.53-34.8,56.4-62.31L1614.68,1431.24z"/>
		<path class="st11" d="M1474.11,1492.66c0.6,1.42,1.31,2.71,2.05,3.84c2.42,3.71,7.01,5.37,11.26,4.13l120.5-35.24
			c6.92-2.02,11.22-8.91,9.99-16.02l-0.16-0.91L1474.11,1492.66z"/>
		<path class="st59" d="M1521.09,1435.49c0,0-3.72,11.43,24.29,17.45"/>
		<path class="st59" d="M1505.36,1445.57c0,0-3.72,11.43,24.29,17.45"/>
	</g>
	<path class="st4" d="M1617.53,1423.03l-1.1-181.38c0-0.62,0.04-1.24,0.14-1.86c1.36-8.74,3.01-17.24,3.73-26.11
		c2.96-36.43,11.96-56.15-28.06-65.95c-53.36-13.06-53.37,33.94-53.37,33.94l-1.49,240.74c-0.04,6.33,5.05,11.5,11.38,11.57
		l57.14,0.61C1612.33,1434.67,1617.56,1429.46,1617.53,1423.03z"/>
	<path class="st4" d="M1770.02,1174.23l27.43-254.5c0,0,9.15-73.27-80.99-53.99c0,0-32.45,1.93-36.25,38.56
		c-3.8,36.63,13.94,269.92,13.94,269.92S1736.63,1220.5,1770.02,1174.23z"/>
	<path class="st4" d="M1618.9,1177.34l68.01-249.21c0,0,21.03-72.79-75.69-62.21c0,0-34.03-1.23-43.74,35.24
		c-9.71,36.47-27.97,272.83-27.97,272.83S1576.91,1220.62,1618.9,1177.34z"/>
	<path class="st4" d="M1785.17,1428.41l-9.97-185.64c-0.03-0.5-0.02-1.01,0.02-1.51c0.66-8.87-0.69-17.49-1.34-26.45
		c-3.01-41.51,9.38-56.86-30.46-62.96c-53.11-8.13-50.21,38.56-50.21,38.56l13.47,239.17c0.36,6.44,5.68,11.49,12.13,11.51
		l54.15,0.17C1779.97,1441.28,1785.55,1435.41,1785.17,1428.41z"/>
	<path class="st10" d="M1778.13,1441.09c0,0,17.65,79.14-32,96c-53,18-33-96-33-96H1778.13z"/>
	<path class="st59" d="M1760.13,1472.09c0,0-15,13-32,0"/>
	<path class="st59" d="M1758.13,1490.09c0,0-15,13-32,0"/>
	
		<linearGradient id="SVGID_00000075121573674274692970000004244274063179730343_" gradientUnits="userSpaceOnUse" x1="1721.2103" y1="392.5669" x2="1700.408" y2="735.8077">
		<stop  offset="0.1666" style="stop-color:#E094AE"/>
		<stop  offset="0.2781" style="stop-color:#ECA3BB"/>
		<stop  offset="0.434" style="stop-color:#F7B1C6"/>
		<stop  offset="0.631" style="stop-color:#FDB9CD"/>
		<stop  offset="1" style="stop-color:#FFBBCF"/>
	</linearGradient>
	<path style="fill:url(#SVGID_00000075121573674274692970000004244274063179730343_);" d="M1759.31,523.33l4.15-39.69l14.13-37.3
		l-59.49-13.83l-3.39,38.09l-10.82,29.83c-0.75,2.07-2.92,3.26-5.07,2.77l0,0c0,0-55.94,12.64-72.79,100.21
		c-16.85,87.58,46.33,100.21,46.33,100.21h69.9l45.93-33.7v-96.88l-27.59-44.16C1759.56,527.24,1759.11,525.28,1759.31,523.33z"/>
	<path class="st8" d="M1429.84,546.39l187.88-29.6c0,0,44.39-3.46,40.72,50.68c0,0-10.72,31.04-36.63,28.86
		c-25.91-2.18-206.52,9.89-206.52,9.89L1429.84,546.39z"/>
	<path class="st8" d="M1910.34,712.24l141.8-111.34l16.33,24.64l-127.09,128.31c0,0-38.13,28.87-45.4-2.37
		C1892.57,736.81,1898.5,721.53,1910.34,712.24z"/>
	<path class="st8" d="M1918.96,707.75l-99.3-126.16c0,0-53.9-57.22-72.76,22.75c0,0-19.97-1.09,92.46,100.33
		c14.66,13.22,28.26,27.56,41.34,42.35c9.99,11.3,25.75,22.92,42.78,11.63L1918.96,707.75z"/>
	<path class="st8" d="M1459.87,389.24c0.59,0.89,1.21,1.8,2.13,2.35c1.19,0.72,2.7,0.72,4.12,0.71c4.38-0.04,8.96-0.13,12.91-2.17
		c5.36-2.76,8.43-8.53,10.37-14.13c1.94-5.6,3.16-11.53,6.43-16.55c4.24-6.51,11.64-11.02,14.46-18.19
		c1.46-3.72,1.51-7.75,1.54-11.68c0.04-5.6,0.08-11.2,0.11-16.8c0.02-2.81,0.82-5.81,0.48-8.41c-0.26-1.98-2.61-2.89-4.24-1.6
		c-5.4,4.27-5.74,11.55-6.09,19.08c-0.24,5.15-6.03,10.8-8.61,15.39c0.09-4.26,0.17-8.53,0.26-12.79c-0.7,0.09-0.05,1.31,0.58,0.99
		c0.63-0.33,0.69-1.18,0.64-1.86c-0.5-6.23-2.59-12.26-6.03-17.4c-0.42-0.63-0.89-1.27-1.57-1.61c-1.72-0.86-3.88,0.53-5.03,2.15
		c-1.15,1.62-1.87,3.59-3.44,4.83c-0.38-0.64-0.81-1.24-1.28-1.82c-2.26-2.74-6.87-2.27-8.55,1.01c-0.01,0.02-0.02,0.04-0.03,0.06
		c-0.58,1.15-0.87,2.42-1.58,3.5c-1.18,1.81-1.14-6.06-6.24-1.82c-7.25,6.03-7.93,21.94-7.02,30.98c0.91,9.04,3.33,18.29,0.5,27.11
		C1451.83,379.4,1455.11,382.11,1459.87,389.24z"/>
	<path class="st8" d="M2038.17,589.72c2.85-8.84,8.65-16.37,13.39-24.36c1.5-2.53,3.03-5.25,5.61-6.65c2.59-1.4,6.55-0.66,7.39,2.16
		c0.46,1.53-0.12,3.16-0.69,4.65c-1.8,4.74-3.6,9.47-5.39,14.21c7.34-15.76,14.71-31.59,24.17-46.17c1.27-1.95,2.66-3.97,4.75-5.01
		c2.08-1.05,5.04-0.73,6.21,1.28c0.79,1.35,0.59,3.04,0.28,4.58c-1.51,7.45-5.06,14.48-10.18,20.11c3.75-5.7,7.5-11.4,11.25-17.1
		c1.75-2.65,3.64-5.44,6.53-6.77c2.89-1.33,7.03-0.46,8.06,2.54c0.93,2.7-0.94,5.49-2.71,7.73c-6.02,7.63-12.04,15.26-18.06,22.9
		c3.64-3.79,7.29-7.57,10.93-11.36c4.42-4.59,9.93-9.58,16.23-8.56c1.52,0.25,3.18,1.08,3.47,2.59c0.13,0.67-0.03,1.35-0.22,2.01
		c-1.88,6.72-5.81,12.85-11.15,17.35c-5.39,4.54-12.22,7.54-16.37,13.24c7.14-6.1,14.68-11.72,22.57-16.82
		c1.38-0.9,2.9-1.81,4.55-1.71c3.41,0.2,5.05,4.56,4.3,7.89c-1.74,7.68-10.35,11.16-16.67,15.85c-5.07,3.76-9.09,8.91-11.51,14.74
		c-1.59,3.84-2.5,7.96-4.42,11.64c-3.65,7.01-10.51,11.66-17.09,16.03c-5.58,3.7-11.48,7.51-18.15,8.03
		c-11.85,0.92-14.46-7.61-15.2-17.1C2039.27,607.75,2034.91,599.83,2038.17,589.72z"/>
	<path class="st8" d="M1815.86,420.17c-12.44,45.26-66.31,68.58-87.6,64.07c-30.47-6.45-55-54.57-42.56-99.83
		c12.44-45.26,51.65-73.95,87.6-64.07C1809.24,330.21,1828.29,374.91,1815.86,420.17z"/>
	<path class="st26" d="M1702,502l11,64l47-39l53.6,32.16c10.83,6.5,20.29,15.03,27.87,25.13L1926,697l-25,68l-108-84l12,218
		c0,0-171,27-232-10l43-226l3-48l-189-9l29.36-64.12L1611.1,511c3.27-0.66,6.57-1.15,9.89-1.46L1702,502z"/>
	<polygon class="st3" points="1702,502 1676,568 1713,566 	"/>
	<polygon class="st3" points="1760,527 1746,581 1712,566 	"/>
	<rect x="1693" y="565" transform="matrix(0.9945 0.1044 -0.1044 0.9945 86.1588 -173.0381)" class="st3" width="6" height="343"/>
	<polygon class="st3" points="1459,540 1479,528 1479,548 1459,554.5 1475,561 1447,617 1430,606 	"/>
	<polygon class="st3" points="1926,696 1915.93,677.57 1899,720 1905,732 1895,732 1886,760 1901,766 	"/>
	<path class="st8" d="M1485.73,342.14c2.17-19.43,4.51-39.32,9.24-58.3c2.24-8.97,11.72-5.57,9.84,2.73
		c-4.2,18.52-5.39,37.14-9.59,55.66c-1.33,5.86-10.29,4.37-9.4-1.58c0.11-0.71,0.3-1.41,0.58-2.08"/>
	<g>
		<path class="st3" d="M2049.88,156.97c-62.41,0-113,36.53-113,81.59c0,17.91,8,34.47,21.55,47.93l-14.02,44.13l41.65-24.72
			c18.16,8.99,40.14,14.25,63.82,14.25c62.41,0,113-36.53,113-81.59S2112.29,156.97,2049.88,156.97z"/>
		<circle class="st11" cx="1996.81" cy="234.95" r="15.89"/>
		<circle class="st11" cx="2051.68" cy="234.95" r="15.89"/>
		<circle class="st11" cx="2110.17" cy="234.95" r="15.89"/>
	</g>
	<circle class="st0" cx="155.54" cy="1172.79" r="83.38"/>
	<circle class="st62" cx="173.63" cy="1172.79" r="83.38"/>
	<g>
		<line class="st63" x1="759.27" y1="1252.79" x2="776.48" y2="1216.79"/>
		<line class="st63" x1="785.88" y1="1243.4" x2="749.88" y2="1226.19"/>
	</g>
	<g>
		<line class="st63" x1="699.27" y1="497.79" x2="716.48" y2="461.79"/>
		<line class="st63" x1="725.88" y1="488.4" x2="689.88" y2="471.19"/>
	</g>
	<path class="st10" d="M1802.41,443.56c0,0,28.47-52.28,1.37-43.81l-11.36,11.44c0,0,12.46-37.63,7.79-54.06
		c-1.36-4.8-6.69-6.13-9.86-2.43c-4.81,5.62-12.6,15.03-15.94,20.82c0,0-6.44-40.13,11.41-38.07c0,0-25.2-16.8-35.74,39.91
		c0,0-24.28-24.8-7.57-39.1c0,0-25.32,1.72-30.65,39.34c0,0-14.78-54.99-28.28,18.76c0,0-35.19-104.82,72.91-109.78l-7.1,11
		c0,0,45.71-14.67,73.37,24.42l-20.45-5.2c0,0,44.47,32.28,31.68,73.67l-13.42-17.79C1820.56,372.7,1835.58,411.52,1802.41,443.56z"
		/>
	<path class="st8" d="M1399.58,560.81l53.75-183.76l31.32,9.2l-32.56,191.34c0,0-15.11,48.5-40.69,25.99
		C1399.4,593.01,1395.09,576.15,1399.58,560.81z"/>
	<g>
		<g>
			<g>
				<path class="st3" d="M1620.63,261.01c0-15.86-13.47-28.75-30.21-29.03c-17.41-0.3-31.7,13.22-31.34,29.64
					c0.11,4.98,1.55,9.66,4,13.72c5.27,8.75,11.58,18.6,11.58,28.66l0,0c0,0.46,0.32,0.83,0.72,0.83h28.83
					c0.45,0,0.82-0.42,0.82-0.95v0c0-10.02,6.3-19.81,11.56-28.51C1619.17,271.14,1620.63,266.23,1620.63,261.01z"/>
			</g>
			<g>
				<path class="st52" d="M1593.21,326.37h-6.39c-1.57,0-2.84-1.27-2.84-2.84l0,0c0-1.57,1.27-2.84,2.84-2.84h6.39
					c1.57,0,2.84,1.27,2.84,2.84l0,0C1596.05,325.1,1594.77,326.37,1593.21,326.37z"/>
			</g>
			<g>
				<path class="st26" d="M1599.56,322.72h-19.09c-2.23,0-4.04-1.81-4.04-4.04v-11.11c0-2.23,1.81-4.04,4.04-4.04h19.09
					c2.23,0,4.04,1.81,4.04,4.04v11.11C1603.6,320.91,1601.79,322.72,1599.56,322.72z"/>
			</g>
		</g>
		<g>
			<path class="st11" d="M1576.43,310.63c2.21-0.73,4.45-1.33,6.7-1.88c2.25-0.55,4.51-1.05,6.78-1.51
				c2.27-0.46,4.55-0.87,6.84-1.22c2.29-0.35,4.59-0.67,6.91-0.84c-2.21,0.73-4.45,1.33-6.7,1.89c-2.25,0.55-4.51,1.05-6.78,1.51
				c-2.27,0.45-4.55,0.86-6.84,1.22C1581.05,310.14,1578.75,310.45,1576.43,310.63z"/>
			<path class="st11" d="M1576.43,311.62c-0.46,0-0.87-0.33-0.96-0.79c-0.1-0.49,0.18-0.97,0.65-1.12c2.45-0.81,4.91-1.44,6.77-1.91
				c2.2-0.54,4.49-1.05,6.82-1.52c2.31-0.46,4.62-0.88,6.88-1.23c1.9-0.29,4.41-0.65,6.99-0.85c0.49-0.04,0.94,0.3,1.04,0.79
				c0.1,0.49-0.18,0.97-0.65,1.12c-2.45,0.81-4.91,1.45-6.77,1.91c-2.22,0.54-4.51,1.05-6.82,1.52c-2.33,0.47-4.64,0.88-6.88,1.23
				c-1.9,0.29-4.42,0.65-6.99,0.85C1576.48,311.61,1576.45,311.62,1576.43,311.62z"/>
		</g>
		<g>
			<path class="st11" d="M1576.43,315.91c2.21-0.73,4.45-1.33,6.7-1.88c2.25-0.55,4.51-1.05,6.78-1.51
				c2.27-0.46,4.55-0.87,6.84-1.22c2.29-0.35,4.59-0.67,6.91-0.84c-2.21,0.73-4.45,1.33-6.7,1.89c-2.25,0.55-4.51,1.05-6.78,1.51
				c-2.27,0.45-4.55,0.86-6.84,1.22C1581.05,315.41,1578.75,315.73,1576.43,315.91z"/>
			<path class="st11" d="M1576.43,316.89c-0.46,0-0.87-0.33-0.96-0.79c-0.1-0.49,0.18-0.97,0.65-1.12c2.45-0.81,4.91-1.44,6.77-1.91
				c2.2-0.54,4.49-1.05,6.82-1.52c2.32-0.47,4.63-0.88,6.88-1.23c1.9-0.29,4.41-0.65,6.99-0.85c0.49-0.04,0.94,0.3,1.04,0.79
				c0.1,0.49-0.18,0.97-0.65,1.12c-2.45,0.81-4.91,1.45-6.77,1.91c-2.22,0.54-4.51,1.05-6.82,1.52c-2.33,0.47-4.64,0.88-6.88,1.23
				c-1.9,0.29-4.42,0.65-6.99,0.86C1576.48,316.89,1576.45,316.89,1576.43,316.89z"/>
		</g>
		<g>
			<path class="st11" d="M1576.43,321.04c2.21-0.73,4.45-1.33,6.7-1.88c2.25-0.55,4.51-1.05,6.78-1.51
				c2.27-0.46,4.55-0.87,6.84-1.22c2.29-0.35,4.59-0.67,6.91-0.84c-2.21,0.73-4.45,1.33-6.7,1.89c-2.25,0.55-4.51,1.05-6.78,1.51
				c-2.27,0.45-4.55,0.86-6.84,1.22C1581.05,320.55,1578.75,320.86,1576.43,321.04z"/>
			<path class="st11" d="M1576.43,322.02c-0.46,0-0.87-0.33-0.96-0.79c-0.1-0.49,0.18-0.97,0.65-1.12c2.45-0.81,4.91-1.44,6.77-1.91
				c2.2-0.54,4.49-1.05,6.82-1.52c2.31-0.46,4.62-0.88,6.88-1.23c1.9-0.29,4.42-0.66,6.99-0.85c0.49-0.04,0.94,0.3,1.04,0.78
				c0.1,0.49-0.18,0.97-0.65,1.12c-2.45,0.81-4.91,1.44-6.77,1.91c-2.21,0.54-4.51,1.05-6.82,1.52c-2.33,0.47-4.65,0.88-6.88,1.23
				c-1.91,0.29-4.42,0.66-6.99,0.85C1576.48,322.02,1576.45,322.02,1576.43,322.02z"/>
		</g>
	</g>
	<path class="st52" d="M1535.35,189.47c3.32,1.1,6.19,2.7,8.95,4.44c2.73,1.76,5.3,3.72,7.72,5.84c2.42,2.12,4.69,4.41,6.79,6.9
		c2.08,2.51,4.04,5.15,5.55,8.31c-3.33-1.09-6.2-2.7-8.95-4.44c-2.73-1.76-5.3-3.72-7.71-5.85c-2.41-2.13-4.68-4.42-6.78-6.91
		C1538.83,195.26,1536.86,192.62,1535.35,189.47z"/>
	<path class="st52" d="M1643.35,190.47c-1.51,3.15-3.47,5.8-5.55,8.31c-2.1,2.49-4.37,4.78-6.78,6.91
		c-2.41,2.13-4.98,4.09-7.71,5.85c-2.75,1.74-5.63,3.35-8.95,4.44c1.51-3.16,3.47-5.8,5.55-8.31c2.1-2.49,4.37-4.78,6.79-6.9
		c2.42-2.12,4.98-4.08,7.72-5.84C1637.16,193.17,1640.03,191.56,1643.35,190.47z"/>
	<path class="st52" d="M1589.85,168.47c1.46,3,2.19,6,2.74,9c0.51,3,0.75,6,0.76,9c0.01,3-0.23,6-0.75,9c-0.55,3-1.28,6-2.75,9
		c-1.47-3-2.21-6-2.75-9c-0.51-3-0.75-6-0.75-9c0-3,0.24-6,0.76-9C1587.66,174.47,1588.39,171.47,1589.85,168.47z"/>
</g>
</svg>
